Input #0, lavfi, from 'smptebars=duration=60:size=1920x1080:rate=30':
  Duration: N/A, start: 0.000000, bitrate: N/A
  Stream #0:0: Video: rawvideo (I420 / 0x30323449), yuv420p, 1920x1080 [SAR 1:1 DAR 16:9], 30 tbr, 30 tbn, 30 tbc
Stream mapping:
  Stream #0:0 -> #0:0 (rawvideo (native) -> h264 (h264_nvenc))
Press [q] to stop, [?] for help
Output #0, mp4, to './test_results/temp_tests_gpu/test_test_50_46/output.mp4':
  Metadata:
    encoder         : Lavf58.76.100
  Stream #0:0: Video: h264 (Main) (avc1 / 0x31637661), yuv420p(tv, progressive), 1280x720 [SAR 1:1 DAR 16:9], q=2-31, 30 fps, 15360 tbn
    Metadata:
      encoder         : Lavc58.134.100 h264_nvenc
    Side data:
      cpb: bitrate max/min/avg: 3000000/0/0 buffer size: 4000000 vbv_delay: N/A
frame=    1 fps=0.0 q=0.0 size=       0kB time=00:00:00.00 bitrate=N/A speed=N/A    frame=    2 fps=0.3 q=0.0 size=       0kB time=00:00:00.00 bitrate=N/A speed=   0x    frame=  128 fps= 19 q=23.0 size=       0kB time=00:00:04.16 bitrate=   0.1kbits/s speed=0.629x    frame=  276 fps= 39 q=23.0 size=       0kB time=00:00:09.10 bitrate=   0.0kbits/s speed=1.28x    frame=  448 fps= 59 q=23.0 size=       0kB time=00:00:14.83 bitrate=   0.0kbits/s speed=1.94x    frame=  625 fps= 77 q=23.0 size=       0kB time=00:00:20.73 bitrate=   0.0kbits/s speed=2.55x    frame=  797 fps= 92 q=23.0 size=       0kB time=00:00:26.46 bitrate=   0.0kbits/s speed=3.07x    frame=  984 fps=108 q=23.0 size=       0kB time=00:00:32.70 bitrate=   0.0kbits/s speed=3.58x    frame= 1169 fps=121 q=23.0 size=       0kB time=00:00:38.86 bitrate=   0.0kbits/s speed=4.03x    frame= 1357 fps=134 q=23.0 size=       0kB time=00:00:45.13 bitrate=   0.0kbits/s speed=4.45x    frame= 1551 fps=146 q=23.0 size=       0kB time=00:00:51.60 bitrate=   0.0kbits/s speed=4.85x    frame= 1744 fps=157 q=23.0 size=       0kB time=00:00:58.03 bitrate=   0.0kbits/s speed=5.21x    [mp4 @ 0x61d733ff8740] Starting second pass: moving the moov atom to the beginning of the file
frame= 1800 fps=159 q=23.0 Lsize=     142kB time=00:00:59.96 bitrate=  19.4kbits/s speed=5.31x    
video:134kB audio:0kB subtitle:0kB other streams:0kB global headers:0kB muxing overhead: 5.963520%
